#!OML:ASF E:\emotionWalksFemale\Project 1\Capture day 1\Session 1\Female1.ASF
:FULLY-SPECIFIED
:DEGREES
1080
root 8.39747 15.6876 6.53519 -181.658 -4.73829 -180.132
lowerback 3.42923 2.3405 -5.78893
upperback -5.4315 2.25619 -2.3467
thorax -7.78674 1.23441 0.552642
lowerneck -0.769068 -5.0951 -8.33797
upperneck 19.5342 -11.6816 15.3791
head 7.42601 -6.04678 5.52399
rclavicle 5.1684e-015 -4.13472e-014
rhumerus -51.0764 4.41924 -89.2981
rradius 51.2002
rwrist 8.96224
rhand -9.27542 -58.4325
rfingers 7.12502
rthumb 16.6813 992.264
lclavicle 5.1684e-015 -4.13472e-014
lhumerus -29.2613 -10.2332 81.6509
lradius 41.4759
lwrist -16.2808
lhand -5.19032 -33.0184
lfingers 7.12502
lthumb 20.6105 -4.09259
rfemur -22.0299 -18.36 17.4235
rtibia 69.704
rfoot 0.32564 -4.86588
rtoes -7.71364
lfemur 4.1116 -24.0172 -31.6733
ltibia 5.20735
lfoot -23.296 13.9763
ltoes -11.4266
1081
root 8.39512 15.686 6.49639 -181.615 -4.894 -180.042
lowerback 3.50457 2.38469 -5.86446
upperback -5.36999 2.31454 -2.33786
thorax -7.7719 1.26931 0.596025
lowerneck -0.798334 -5.23013 -8.44373
upperneck 19.4024 -11.8841 15.5873
head 7.43489 -6.13609 5.59148
rclavicle 1.51076e-014 -5.725e-014
rhumerus -50.7897 4.10524 -88.9021
rradius 50.7661
rwrist 9.29455
rhand -9.49564 -58.767
rfingers 7.12502
rthumb 16.4693 991.912
lclavicle 1.51076e-014 -5.725e-014
lhumerus -28.6504 -10.7105 81.852
lradius 42.0004
lwrist -15.8454
lhand -4.40701 -32.3069
lfingers 7.12502
lthumb 21.3631 -3.46452
rfemur -23.1404 -18.1487 17.6747
rtibia 69.0947
rfoot -0.96063 -5.95032
rtoes -4.15901
lfemur 3.81969 -24.2572 -31.6901
ltibia 6.10908
lfoot -24.3009 13.5239
ltoes -9.17741
1082
root 8.39344 15.6847 6.45419 -181.611 -5.18743 -179.792
lowerback 3.48636 2.36364 -5.80098
upperback -5.27544 2.31325 -2.28616
thorax -7.65675 1.26879 0.618926
lowerneck -0.652481 -5.3519 -8.54588
upperneck 19.1086 -12.0639 15.8638
head 7.3604 -6.22298 5.68901
rclavicle 1.45113e-014 -2.06736e-014
rhumerus -50.4491 4.01112 -88.5433
rradius 50.2473
rwrist 9.38357
rhand -9.74401 -58.6874
rfingers 7.12502
rthumb 16.2302 991.972
lclavicle 1.45113e-014 -2.06736e-014
lhumerus -28.0991 -10.9968 81.9896
lradius 42.426
lwrist -15.7323
lhand -4.26824 -32.0072
lfingers 7.12502
lthumb 21.4963 -3.18005
rfemur -24.1173 -17.9477 18.1152
rtibia 68.3262
rfoot -2.20382 -6.86145
rtoes -2.6468
lfemur 3.63979 -24.6311 -31.5687
ltibia 6.9193
lfoot -24.9629 13.6515
ltoes -10.7791
1083
root 8.39472 15.6799 6.41252 -181.591 -5.66577 -179.607
lowerback 3.4727 2.26773 -5.90105
upperback -5.19848 2.19491 -2.22919
thorax -7.56581 1.21916 0.749635
lowerneck -0.35124 -5.47661 -8.6563
upperneck 18.7217 -12.2451 16.1495
head 7.2296 -6.32265 5.79642
rclavicle -1.15295e-014 -7.95139e-015
rhumerus -50.2968 3.93153 -88.1618
rradius 50.0209
rwrist 9.11901
rhand -9.85346 -58.5786
rfingers 7.12502
rthumb 16.1248 992.072
lclavicle -1.15295e-014 -7.95139e-015
lhumerus -27.6872 -11.2209 82.0655
lradius 42.7376
lwrist -15.7692
lhand -4.45279 -32.1814
lfingers 7.12502
lthumb 21.3191 -3.33406
rfemur -25.0548 -18.0404 18.5271
rtibia 67.4503
rfoot -3.06241 -7.75094
rtoes -4.68057
lfemur 3.47553 -25.1875 -31.4992
ltibia 7.67287
lfoot -25.5371 13.82
ltoes -12.4403
1084
root 8.39712 15.6748 6.37068 -181.531 -6.06483 -179.565
lowerback 3.54471 2.23415 -6.10105
upperback -5.23777 2.11771 -2.27543
thorax -7.65482 1.19031 0.816214
lowerneck 0.0552448 -5.60531 -8.63216
upperneck 18.4349 -12.4712 16.3495
head 7.1067 -6.45377 5.85234
rclavicle -1.59028e-015 1.59028e-014
rhumerus -50.4477 3.62562 -87.8736
rradius 49.9548
rwrist 9.07758
rhand -9.82286 -58.6755
rfingers 7.12502
rthumb 16.1542 991.978
lclavicle -1.59028e-015 1.59028e-014
lhumerus -27.4999 -11.6703 82.1062
lradius 43.1588
lwrist -15.5781
lhand -4.26868 -32.0498
lfingers 7.12502
lthumb 21.4959 -3.22257
rfemur -26.0057 -18.0909 18.8006
rtibia 66.4951
rfoot -3.64584 -8.63034
rtoes -6.44946
lfemur 3.22024 -25.6685 -31.555
ltibia 8.53012
lfoot -26.5109 13.1246
ltoes -9.26157
1085
root 8.39765 15.6718 6.33162 -181.398 -6.39598 -179.448
lowerback 3.55374 2.1872 -6.22211
upperback -5.28697 2.03971 -2.2616
thorax -7.71541 1.15975 0.904412
lowerneck 0.204585 -5.70096 -8.64216
upperneck 18.3739 -12.6579 16.4794
head 7.09582 -6.55375 5.88571
rclavicle -7.35503e-015 -1.59028e-015
rhumerus -50.4544 3.39152 -87.5915
rradius 49.6879
rwrist 9.23675
rhand -9.85035 -58.8998
rfingers 7.12502
rthumb 16.1278 991.751
lclavicle -7.35503e-015 -1.59028e-015
lhumerus -27.2903 -11.8336 82.1628
lradius 43.546
lwrist -15.3664
lhand -4.10884 -31.8256
lfingers 7.12502
lthumb 21.6494 -3.01592
rfemur -27.0026 -17.9905 19.1734
rtibia 65.4279
rfoot -4.25 -9.52047
rtoes -7.50586
lfemur 2.91484 -26.1008 -31.4721
ltibia 9.19062
lfoot -27.3037 12.4298
ltoes -5.5368
1086
root 8.39793 15.6714 6.29349 -181.239 -6.81302 -179.243
lowerback 3.48556 2.05561 -6.30841
upperback -5.26941 1.8791 -2.13815
thorax -7.6539 1.09157 1.1021
lowerneck 0.166726 -5.74517 -8.85265
upperneck 18.3214 -12.7414 16.6829
head 7.12341 -6.59433 5.98121
rclavicle -1.47101e-014 3.02153e-014
rhumerus -50.2736 3.27672 -87.2219
rradius 49.4431
rwrist 9.29998
rhand -9.70439 -59.3187
rfingers 7.12502
rthumb 16.2683 991.344
lclavicle -1.47101e-014 3.02153e-014
lhumerus -26.9012 -11.4861 82.2366
lradius 43.6503
lwrist -15.5212
lhand -4.16594 -31.9606
lfingers 7.12502
lthumb 21.5946 -3.14464
rfemur -27.9497 -17.9755 19.6445
rtibia 64.2584
rfoot -4.90256 -10.4181
rtoes -8.66589
lfemur 2.63342 -26.6256 -31.2578
ltibia 9.67237
lfoot -27.8949 12.0184
ltoes -3.09667
1087
root 8.39846 15.6754 6.25321 -181.146 -7.27774 -179.035
lowerback 3.53399 1.94861 -6.36588
upperback -5.25858 1.74072 -2.04882
thorax -7.66592 1.03287 1.24128
lowerneck 0.174206 -5.84559 -9.01665
upperneck 18.1748 -12.887 16.8848
head 7.11956 -6.66419 6.06317
rclavicle -2.34566e-014 9.54166e-015
rhumerus -50.1885 3.1922 -86.9172
rradius 49.3476
rwrist 9.25808
rhand -9.47322 -59.6906
rfingers 7.12502
rthumb 16.4909 990.99
lclavicle -2.34566e-014 9.54166e-015
lhumerus -26.6067 -11.343 82.339
lradius 43.796
lwrist -15.7778
lhand -4.10933 -32.1054
lfingers 7.12502
lthumb 21.649 -3.29568
rfemur -28.7295 -18.0702 20.0854
rtibia 63.0134
rfoot -5.73559 -11.2217
rtoes -9.00064
lfemur 2.43861 -27.1839 -31.0867
ltibia 10.2066
lfoot -28.513 11.5733
ltoes -1.03671
1088
root 8.40026 15.6761 6.21166 -181.053 -7.67852 -178.857
lowerback 3.45134 1.91037 -6.38889
upperback -5.17321 1.70854 -2.0247
thorax -7.52426 1.01782 1.28747
lowerneck 0.183179 -6.05689 -9.01572
upperneck 17.8665 -13.138 17.022
head 7.06632 -6.77462 6.08259
rclavicle 3.81667e-014 -2.70347e-014
rhumerus -49.9316 3.07418 -86.6638
rradius 49.1361
rwrist 9.35498
rhand -9.09431 -60.0377
rfingers 7.12502
rthumb 16.8557 990.674
lclavicle 3.81667e-014 -2.70347e-014
lhumerus -26.3615 -11.6585 82.4557
lradius 44.2123
lwrist -15.8622
lhand -4.19995 -31.9491
lfingers 7.12502
lthumb 21.5619 -3.12942
rfemur -29.4585 -18.0533 20.4992
rtibia 61.7005
rfoot -6.65203 -12.0368
rtoes -9.34742
lfemur 2.33037 -27.7355 -30.9571
ltibia 10.592
lfoot -28.9997 11.4276
ltoes -0.632357
1089
root 8.40168 15.6724 6.17126 -180.927 -8.02546 -178.728
lowerback 3.24927 1.8694 -6.3865
upperback -5.01303 1.68988 -2.02162
thorax -7.23149 1.00369 1.30149
lowerneck 0.248438 -6.21384 -9.19474
upperneck 17.3586 -13.3201 17.4446
head 6.95946 -6.85524 6.23806
rclavicle -1.19271e-015 4.6118e-014
rhumerus -49.4377 2.9215 -86.3655
rradius 48.7765
rwrist 9.58892
rhand -8.67705 -60.2216
rfingers 7.12502
rthumb 17.2573 990.525
lclavicle -1.19271e-015 4.6118e-014
lhumerus -25.8831 -11.6757 82.5206
lradius 44.4872
lwrist -16.0036
lhand -3.99506 -31.6594
lfingers 7.12502
lthumb 21.7587 -2.86243
rfemur -30.1918 -17.8816 20.8532
rtibia 60.3463
rfoot -7.57584 -13.1188
rtoes -10.6329
lfemur 2.29507 -28.1421 -30.8569
ltibia 10.7371
lfoot -29.292 11.2693
ltoes 0.0126359
1090
root 8.40101 15.679 6.13165 -180.864 -8.44734 -178.533
lowerback 3.29005 1.79229 -6.3606
upperback -4.9638 1.59655 -1.98994
thorax -7.19465 0.958709 1.32964
lowerneck 0.391818 -6.27708 -9.51278
upperneck 17.0191 -13.4721 18.0231
head 6.90823 -6.93896 6.47871
rclavicle 3.97569e-015 3.33958e-014
rhumerus -49.2031 2.8727 -86.1284
rradius 48.5314
rwrist 9.44332
rhand -8.7978 -60.0195
rfingers 7.12502
rthumb 17.1411 990.717
lclavicle 3.97569e-015 3.33958e-014
lhumerus -25.5431 -11.4005 82.5763
lradius 44.6599
lwrist -16.0343
lhand -3.09845 -31.3729
lfingers 7.12502
lthumb 22.6195 -2.67828
rfemur -30.7891 -17.7508 21.2525
rtibia 58.9563
rfoot -8.48138 -14.3824
rtoes -12.5066
lfemur 2.36028 -28.5261 -30.7145
ltibia 10.8357
lfoot -29.6178 11.3323
ltoes -0.237354
1091
root 8.40089 15.6853 6.09002 -180.87 -8.87074 -178.337
lowerback 3.42527 1.73064 -6.36177
upperback -4.96034 1.50809 -1.96838
thorax -7.26351 0.919153 1.35804
lowerneck 0.480874 -6.35639 -9.72661
upperneck 16.9002 -13.6689 18.4166
head 6.92675 -7.04426 6.63341
rclavicle 7.95139e-016 -1.11319e-014
rhumerus -49.1721 2.99604 -86.046
rradius 48.3131
rwrist 9.29914
rhand -9.75154 -59.6967
rfingers 7.12502
rthumb 16.2229 990.962
lclavicle 7.95139e-016 -1.11319e-014
lhumerus -25.5196 -11.4262 82.636
lradius 45.1479
lwrist -15.9387
lhand -2.20089 -30.9586
lfingers 7.12502
lthumb 23.4807 -2.37158
rfemur -31.2632 -17.7123 21.6488
rtibia 57.5719
rfoot -9.15712 -15.6038
rtoes -12.9916
lfemur 2.54944 -28.967 -30.6252
ltibia 10.8726
lfoot -29.9441 12.1006
ltoes -4.12255
1092
root 8.40197 15.6808 6.04899 -180.844 -9.20239 -178.345
lowerback 3.5241 1.73786 -6.51802
upperback -4.92843 1.49928 -1.99552
thorax -7.29188 0.922745 1.41512
lowerneck 0.542424 -6.47609 -10.0075
upperneck 16.7613 -13.9003 18.7974
head 6.95495 -7.16514 6.79063
rclavicle 1.2921e-014 -3.18055e-015
rhumerus -49.1017 3.07548 -85.9182
rradius 47.7989
rwrist 10.2213
rhand -10.9863 -58.9239
rfingers 7.12502
rthumb 15.0337 991.642
lclavicle 1.2921e-014 -3.18055e-015
lhumerus -25.5607 -12.2048 82.7943
lradius 45.3713
lwrist -15.5617
lhand -2.27155 -30.523
lfingers 7.12502
lthumb 23.4129 -1.92723
rfemur -31.7666 -17.6604 21.833
rtibia 56.2418
rfoot -9.67156 -16.5438
rtoes -10.6068
lfemur 2.82145 -29.303 -30.7601
ltibia 10.7364
lfoot -29.7373 13.2608
ltoes -10.151
1093
root 8.40171 15.6802 6.01067 -180.738 -9.52071 -178.361
lowerback 3.59905 1.74856 -6.66565
upperback -4.9532 1.48956 -2.02737
thorax -7.36721 0.92558 1.46195
lowerneck 0.840671 -6.60484 -10.3044
upperneck 16.4357 -14.1364 19.2338
head 6.88831 -7.30665 6.97887
rclavicle 1.92821e-014 -7.95139e-015
rhumerus -49.0077 2.8319 -85.5472
rradius 47.749
rwrist 10.0426
rhand -10.64 -59.5922
rfingers 7.12502
rthumb 15.3673 990.999
lclavicle 1.92821e-014 -7.95139e-015
lhumerus -25.6955 -12.686 82.9256
lradius 45.5885
lwrist -15.4368
lhand -2.53816 -30.4139
lfingers 7.12502
lthumb 23.1571 -1.7858
rfemur -32.3348 -17.5866 22.0308
rtibia 54.9255
rfoot -9.90975 -17.061
rtoes -8.39548
lfemur 3.02497 -29.5516 -30.8548
ltibia 10.5257
lfoot -29.1996 14.0553
ltoes -14.1317
